# File created by Blade
# Date/Time:  Tue Jan 27 19:05:02 2015
# Frame Rate: 120.000 fps
#------------------------------------------------------
:FULLY-SPECIFIED
:DEGREES
2460
root -2.021280 31.665123 -4.758386 7.753453 -30.343482 -5.006914
Spine 1.715367 12.498910 0.016432
Head 19.060668 28.043569 -2.677551
LeftShoulder -21.359162 21.198792 11.693311
LeftArm -6.088312 -54.724259 -67.411664
LeftForeArm -8.868394 -0.000000 96.375008
LeftHand -14.849233 0.000000 43.101657
LeftHandThumb1 -26.253704 0.000000 33.147579
RightShoulder -1.109806 10.305498 -5.231218
RightArm 24.070320 -62.226802 77.245093
RightForeArm -23.054044 -0.000000 19.769748
RightHand -11.879321 -0.000000 16.906782
RightHandThumb1 -24.326973 -0.000000 -32.862282
LeftUpLeg -8.168582 11.784222 -8.318149
LeftLeg 13.593417 -0.000000 -0.000000
LeftFoot -29.657679 31.824682 -18.655793
LeftToeBase 10.745529 -0.000000 -0.000000
RightUpLeg -16.555242 -58.172641 -1.996162
RightLeg 110.179960 -0.000000 -0.000000
RightFoot -2.161702 -7.004272 27.262191
RightToeBase 3.418616 -0.000000 -0.000000
2461
root -2.029848 31.672966 -4.757144 7.915555 -30.273149 -5.156074
Spine 1.703098 12.469177 0.163383
Head 18.885915 28.117195 -2.853626
LeftShoulder -21.363082 21.158941 11.645025
LeftArm -5.979681 -54.834104 -67.550834
LeftForeArm -8.666897 -0.000000 96.391087
LeftHand -15.005068 0.000000 43.275411
LeftHandThumb1 -26.253704 0.000000 33.147579
RightShoulder -1.088304 10.318876 -5.282731
RightArm 24.175080 -62.343023 77.165633
RightForeArm -23.015254 -0.000000 19.782191
RightHand -11.908217 -0.000000 16.807101
RightHandThumb1 -24.326973 -0.000000 -32.862282
LeftUpLeg -8.332416 11.862758 -8.181424
LeftLeg 13.772888 -0.000000 -0.000000
LeftFoot -29.671059 31.650925 -18.664740
LeftToeBase 10.714242 -0.000000 -0.000000
RightUpLeg -15.961255 -58.033892 -2.381216
RightLeg 111.237728 -0.000000 -0.000000
RightFoot -2.092058 -7.440269 26.792301
RightToeBase 2.773804 -0.000000 -0.000000
2462
root -2.026741 31.675686 -4.755204 8.092053 -30.189110 -5.229916
Spine 1.632962 12.437731 0.265320
Head 18.747424 28.148544 -3.052054
LeftShoulder -21.353561 21.112967 11.588359
LeftArm -5.877138 -54.896044 -67.650232
LeftForeArm -8.600448 -0.000000 96.387016
LeftHand -15.133827 0.000000 43.552615
LeftHandThumb1 -26.253704 0.000000 33.147579
RightShoulder -1.072089 10.318357 -5.394644
RightArm 24.084431 -62.319336 77.298124
RightForeArm -23.270699 0.000000 19.862152
RightHand -12.045268 -0.000000 16.553798
RightHandThumb1 -24.326973 -0.000000 -32.862282
LeftUpLeg -8.533500 11.702234 -8.138792
LeftLeg 13.906387 -0.000000 -0.000000
LeftFoot -29.706786 31.706151 -18.692071
LeftToeBase 10.630986 -0.000000 -0.000000
RightUpLeg -15.463712 -57.956016 -2.791824
RightLeg 112.316133 -0.000000 -0.000000
RightFoot -2.014704 -7.984594 26.394535
RightToeBase 3.655664 -0.000000 -0.000000
2463
root -2.043203 31.682000 -4.757136 8.265595 -30.138376 -5.419435
Spine 1.604294 12.470805 0.420906
Head 18.684049 28.151232 -3.148582
LeftShoulder -21.284707 21.052830 11.574802
LeftArm -5.864627 -55.013701 -67.628371
LeftForeArm -8.504081 -0.000000 96.365056
LeftHand -15.328726 -0.000000 43.688242
LeftHandThumb1 -26.253704 0.000000 33.147579
RightShoulder -1.087633 10.288577 -5.390737
RightArm 24.234923 -62.370668 77.164805
RightForeArm -23.222782 -0.000000 19.868470
RightHand -12.022938 -0.000000 16.538404
RightHandThumb1 -24.326973 -0.000000 -32.862282
LeftUpLeg -8.684497 11.807436 -7.965667
LeftLeg 14.066129 -0.000000 -0.000000
LeftFoot -29.802409 31.559576 -18.756160
LeftToeBase 10.664889 -0.000000 -0.000000
RightUpLeg -14.835817 -57.825480 -3.136968
RightLeg 113.270941 -0.000000 -0.000000
RightFoot -2.005855 -8.616630 25.870827
RightToeBase 2.745629 -0.000000 -0.000000
2464
root -2.053350 31.688091 -4.767448 8.467981 -30.084872 -5.544499
Spine 1.544183 12.452994 0.499689
Head 18.574177 28.228747 -3.258786
LeftShoulder -21.288261 20.989370 11.537564
LeftArm -5.775607 -55.120334 -67.637466
LeftForeArm -8.509838 -0.000000 96.306245
LeftHand -15.453149 -0.000000 43.842531
LeftHandThumb1 -26.253704 0.000000 33.147579
RightShoulder -1.021551 10.362816 -5.396745
RightArm 24.320717 -62.556384 77.023940
RightForeArm -23.079141 0.000000 19.989678
RightHand -11.989463 -0.000000 16.660921
RightHandThumb1 -24.326973 -0.000000 -32.862282
LeftUpLeg -8.912584 11.824042 -7.867647
LeftLeg 14.215230 -0.000000 -0.000000
LeftFoot -29.824163 31.538282 -18.751108
LeftToeBase 10.675630 -0.000000 -0.000000
RightUpLeg -14.377937 -57.699370 -3.394306
RightLeg 114.219196 -0.000000 -0.000000
RightFoot -2.364410 -9.249824 26.178665
RightToeBase 4.101353 -0.000000 -0.000000
